<svg class="w-6 h-6" width="24" height="24" viewBox="0 0 24 24" fill="none" xmlns="http://www.w3.org/2000/svg"><path d="M13.3511 1.00426C13.6035 0.979434 13.8584 1.01916 14.0913 1.11949L14.2056 1.17516L14.315 1.23961C14.5276 1.37773 14.7014 1.56768 14.8208 1.79137L14.8765 1.90563L14.9214 2.02477C15.0012 2.26511 15.0193 2.52186 14.9732 2.77086L14.9439 2.89488C14.9403 2.90782 14.9372 2.92116 14.9331 2.93395L13.0132 8.95348L12.9966 9.00035H19.9995C20.377 8.99962 20.7472 9.10533 21.0669 9.30602C21.3874 9.50722 21.6438 9.79572 21.8072 10.1371C21.9705 10.4784 22.0342 10.8589 21.9898 11.2347C21.9509 11.5635 21.8311 11.8768 21.6421 12.1468L21.5562 12.2601L21.4976 12.3265L11.5972 22.5267L11.5962 22.5257C11.3775 22.7596 11.0908 22.9195 10.7749 22.9779C10.4404 23.0398 10.0945 22.986 9.79446 22.8255C9.49446 22.6651 9.25781 22.4067 9.12356 22.0941C8.98947 21.7816 8.96599 21.4328 9.05618 21.1048L9.06692 21.0658L10.9868 15.0463L11.0034 15.0004H3.99954V14.9994C3.62242 14.9999 3.25259 14.8942 2.93313 14.6937C2.61282 14.4926 2.35623 14.2048 2.1929 13.8636C2.02953 13.5222 1.96587 13.1409 2.01028 12.765C2.05474 12.3893 2.2055 12.0334 2.44388 11.7396L2.50247 11.6732L12.4029 1.47399C12.6216 1.23994 12.9092 1.08127 13.2251 1.02281L13.3511 1.00426ZM4.00247 13.0004H10.9995C11.3221 12.9998 11.6401 13.0771 11.9263 13.2259C12.2132 13.3752 12.4602 13.5914 12.645 13.8568C12.8299 14.1223 12.9474 14.4294 12.9878 14.7504C13.0261 15.055 12.9904 15.363 12.8902 15.6527L12.8931 15.6537L11.6265 19.6244L19.9976 11.0004H12.9995V10.9994C12.6774 10.9998 12.3596 10.9234 12.0738 10.7748C11.7868 10.6255 11.5399 10.4084 11.355 10.1429C11.1703 9.87756 11.0527 9.57115 11.0122 9.25035C10.9738 8.94533 11.0084 8.63614 11.1089 8.34606H11.107L12.3726 4.37438L4.00247 13.0004Z" fill="#686583" style="fill-opacity:1;"/></svg>