<svg class="w-6 h-6" width="24" height="24" viewBox="0 0 24 24" fill="none" xmlns="http://www.w3.org/2000/svg"><path d="M15 21V19C15 18.2044 14.6837 17.4415 14.1211 16.8789C13.6289 16.3867 12.9835 16.0829 12.2969 16.0146L12 16H6C5.20435 16 4.44152 16.3163 3.87891 16.8789C3.3163 17.4415 3 18.2044 3 19V21C3 21.5523 2.55228 22 2 22C1.44772 22 1 21.5523 1 21V19C1 17.6739 1.52716 16.4025 2.46484 15.4648C3.40253 14.5272 4.67392 14 6 14H12L12.248 14.0059C13.4838 14.0672 14.6561 14.5858 15.5352 15.4648C16.4728 16.4025 17 17.6739 17 19V21C17 21.5523 16.5523 22 16 22C15.4477 22 15 21.5523 15 21Z" fill="#686583" style="fill-opacity:1;"/><path d="M12 7C12 5.34315 10.6569 4 9 4C7.34315 4 6 5.34315 6 7C6 8.65685 7.34315 10 9 10C10.6569 10 12 8.65685 12 7ZM14 7C14 9.76142 11.7614 12 9 12C6.23858 12 4 9.76142 4 7C4 4.23858 6.23858 2 9 2C11.7614 2 14 4.23858 14 7Z" fill="#686583" style="fill-opacity:1;"/><path d="M18 14V8C18 7.44772 18.4477 7 19 7C19.5523 7 20 7.44772 20 8V14C20 14.5523 19.5523 15 19 15C18.4477 15 18 14.5523 18 14Z" fill="#686583" style="fill-opacity:1;"/><path d="M22 10C22.5523 10 23 10.4477 23 11C23 11.5523 22.5523 12 22 12H16C15.4477 12 15 11.5523 15 11C15 10.4477 15.4477 10 16 10H22Z" fill="#686583" style="fill-opacity:1;"/></svg>